<mxfile host="app.diagrams.net" modified="2024-01-21T18:15:46.390Z" agent="Mozilla/5.0 (Windows NT 10.0; Win64; x64) AppleWebKit/537.36 (KHTML, like Gecko) Chrome/119.0.0.0 Safari/537.36 OPR/105.0.0.0" etag="8qPVLRJbTrdsawkUN1Lx" version="22.1.21" type="github">
  <diagram name="Page-1" id="_pIc1GbhXy4IMLbLXFMW">
    <mxGraphModel dx="1393" dy="766" grid="1" gridSize="10" guides="1" tooltips="1" connect="1" arrows="1" fold="1" page="1" pageScale="1" pageWidth="850" pageHeight="1100" math="0" shadow="0">
      <root>
        <mxCell id="0" />
        <mxCell id="1" parent="0" />
        <mxCell id="Alh0uE4IJ64akp9FE0y7-3" value="Perception" style="rounded=0;whiteSpace=wrap;html=1;" vertex="1" parent="1">
          <mxGeometry x="70" y="300" width="100" height="60" as="geometry" />
        </mxCell>
        <mxCell id="Alh0uE4IJ64akp9FE0y7-7" style="edgeStyle=orthogonalEdgeStyle;rounded=0;orthogonalLoop=1;jettySize=auto;html=1;entryX=1;entryY=0.5;entryDx=0;entryDy=0;" edge="1" parent="1" source="Alh0uE4IJ64akp9FE0y7-4" target="Alh0uE4IJ64akp9FE0y7-3">
          <mxGeometry relative="1" as="geometry" />
        </mxCell>
        <mxCell id="Alh0uE4IJ64akp9FE0y7-4" value="Behavior" style="rounded=0;whiteSpace=wrap;html=1;" vertex="1" parent="1">
          <mxGeometry x="300" y="390" width="100" height="60" as="geometry" />
        </mxCell>
        <mxCell id="Alh0uE4IJ64akp9FE0y7-8" style="edgeStyle=orthogonalEdgeStyle;rounded=0;orthogonalLoop=1;jettySize=auto;html=1;entryX=0.5;entryY=1;entryDx=0;entryDy=0;" edge="1" parent="1" source="Alh0uE4IJ64akp9FE0y7-5" target="Alh0uE4IJ64akp9FE0y7-4">
          <mxGeometry relative="1" as="geometry" />
        </mxCell>
        <mxCell id="Alh0uE4IJ64akp9FE0y7-9" style="edgeStyle=orthogonalEdgeStyle;rounded=0;orthogonalLoop=1;jettySize=auto;html=1;entryX=0.5;entryY=1;entryDx=0;entryDy=0;" edge="1" parent="1" source="Alh0uE4IJ64akp9FE0y7-5" target="Alh0uE4IJ64akp9FE0y7-3">
          <mxGeometry relative="1" as="geometry" />
        </mxCell>
        <mxCell id="Alh0uE4IJ64akp9FE0y7-5" value="Strategies" style="rounded=0;whiteSpace=wrap;html=1;" vertex="1" parent="1">
          <mxGeometry x="70" y="450" width="100" height="60" as="geometry" />
        </mxCell>
      </root>
    </mxGraphModel>
  </diagram>
</mxfile>
